<?xml version="1.0" encoding="UTF-8"?>
<svg xmlns="http://www.w3.org/2000/svg" width="960" height="540" viewBox="0 0 960 540">
<style>
text { font-family: -apple-system, BlinkMacSystemFont, 'Segoe UI', sans-serif; }
.title { font-size: 26px; font-weight: 700; fill: #1f2933; }
.axis-label { font-size: 14px; font-weight: 600; fill: #334155; }
.tick { font-size: 12px; fill: #64748b; }
.legend { font-size: 13px; font-weight: 600; fill: #1f2933; }
</style>
<rect width="960" height="540" fill="#ffffff"/>
<text class="title" x="480.0" y="34" text-anchor="middle">Upstream main throughput</text>
<line x1="82" y1="468.00" x2="878" y2="468.00" stroke="#e2e8f0" stroke-width="1"/>
<text class="tick" x="70" y="472.00" text-anchor="end">0</text>
<line x1="82" y1="387.60" x2="878" y2="387.60" stroke="#e2e8f0" stroke-width="1"/>
<text class="tick" x="70" y="391.60" text-anchor="end">100</text>
<line x1="82" y1="307.20" x2="878" y2="307.20" stroke="#e2e8f0" stroke-width="1"/>
<text class="tick" x="70" y="311.20" text-anchor="end">200</text>
<line x1="82" y1="226.80" x2="878" y2="226.80" stroke="#e2e8f0" stroke-width="1"/>
<text class="tick" x="70" y="230.80" text-anchor="end">300</text>
<line x1="82" y1="146.40" x2="878" y2="146.40" stroke="#e2e8f0" stroke-width="1"/>
<text class="tick" x="70" y="150.40" text-anchor="end">400</text>
<line x1="82" y1="66.00" x2="878" y2="66.00" stroke="#e2e8f0" stroke-width="1"/>
<text class="tick" x="70" y="70.00" text-anchor="end">500</text>
<text class="tick" x="890" y="472.00" text-anchor="start">0</text>
<text class="tick" x="890" y="371.50" text-anchor="start">5</text>
<text class="tick" x="890" y="271.00" text-anchor="start">10</text>
<text class="tick" x="890" y="170.50" text-anchor="start">15</text>
<text class="tick" x="890" y="70.00" text-anchor="start">20</text>
<line x1="82.00" y1="66" x2="82.00" y2="468" stroke="#e2e8f0" stroke-width="1"/>
<text class="tick" x="82.00" y="492" text-anchor="middle">0</text>
<line x1="241.20" y1="66" x2="241.20" y2="468" stroke="#e2e8f0" stroke-width="1"/>
<text class="tick" x="241.20" y="492" text-anchor="middle">20k</text>
<line x1="400.40" y1="66" x2="400.40" y2="468" stroke="#e2e8f0" stroke-width="1"/>
<text class="tick" x="400.40" y="492" text-anchor="middle">40k</text>
<line x1="559.60" y1="66" x2="559.60" y2="468" stroke="#e2e8f0" stroke-width="1"/>
<text class="tick" x="559.60" y="492" text-anchor="middle">60k</text>
<line x1="718.80" y1="66" x2="718.80" y2="468" stroke="#e2e8f0" stroke-width="1"/>
<text class="tick" x="718.80" y="492" text-anchor="middle">80k</text>
<line x1="878.00" y1="66" x2="878.00" y2="468" stroke="#e2e8f0" stroke-width="1"/>
<text class="tick" x="878.00" y="492" text-anchor="middle">100k</text>
<line x1="82" y1="66" x2="82" y2="468" stroke="#334155" stroke-width="1.4"/>
<line x1="878" y1="66" x2="878" y2="468" stroke="#334155" stroke-width="1.4"/>
<line x1="82" y1="468" x2="878" y2="468" stroke="#334155" stroke-width="1.4"/>
<text class="axis-label" x="480.0" y="520" text-anchor="middle">ctx size</text>
<text class="axis-label" x="22" y="267.0" text-anchor="middle" transform="rotate(-90 22 267.0)">prefill t/s</text>
<text class="axis-label" x="938" y="267.0" text-anchor="middle" transform="rotate(90 938 267.0)">generation t/s</text>
<polyline fill="none" stroke="#2563eb" stroke-width="3" stroke-linecap="round" stroke-linejoin="round" points="98.30,158.93 114.60,167.26 130.91,171.18 147.21,174.18 163.51,178.26 179.81,181.05 196.11,182.97 212.42,184.97 228.72,187.24 245.02,189.48 261.32,191.95 277.62,194.25 293.93,196.33 310.23,198.45 326.53,200.35 342.83,202.53 359.14,212.40 375.44,214.31 391.74,215.86 408.04,217.81 424.34,219.83 440.65,221.33 456.95,223.25 473.25,225.02 489.55,228.41 505.85,230.19 522.16,232.03 538.46,233.55 554.76,235.08 571.06,236.64 587.36,238.16 603.67,239.81 619.97,243.01 636.27,244.55 652.57,246.14 668.87,247.40 685.18,248.74 701.48,250.32 717.78,251.80 734.08,252.91 750.39,255.63 766.69,257.13 782.99,258.46 799.29,259.66 815.59,260.90 831.90,262.38 848.20,263.47 864.50,264.64 878.00,269.85"/>
<polyline fill="none" stroke="#dc2626" stroke-width="3" stroke-linecap="round" stroke-linejoin="round" points="98.30,110.02 114.60,155.04 130.91,156.45 147.21,160.47 163.51,161.88 179.81,162.48 196.11,163.69 212.42,161.68 228.72,162.88 245.02,163.48 261.32,164.09 277.62,164.89 293.93,165.70 310.23,166.30 326.53,167.10 342.83,175.54 359.14,176.95 375.44,177.56 391.74,178.36 408.04,179.16 424.34,179.77 440.65,180.37 456.95,180.97 473.25,181.78 489.55,182.38 505.85,183.18 522.16,183.79 538.46,184.39 554.76,185.39 571.06,186.20 587.36,186.80 603.67,187.61 619.97,188.21 636.27,188.81 652.57,189.41 668.87,190.02 685.18,190.62 701.48,191.22 717.78,192.03 734.08,192.63 750.39,193.63 766.69,194.04 782.99,194.64 799.29,195.44 815.59,195.85 831.90,196.65 848.20,197.25 864.50,197.86 878.00,198.66"/>
<rect x="694" y="66" width="176" height="62" rx="6" fill="#ffffff" stroke="#cbd5e1"/>
<rect x="708" y="78" width="12" height="12" fill="#2563eb"/>
<text class="legend" x="730" y="89">prefill</text>
<rect x="708" y="104" width="12" height="12" fill="#dc2626"/>
<text class="legend" x="730" y="115">generation</text>
</svg>
